<?xml version="1.0" encoding="UTF-8" standalone="no"?>
<svg version="1.1" xmlns="http://www.w3.org/2000/svg" xmlns:xlink="http://www.w3.org/1999/xlink" preserveAspectRatio="xMidYMid meet" viewBox="0 0 600 550" width="240" height="240"><defs><path d="M292.09 233.37L292.09 233.74L292.09 233.95L292.09 233.58L292.09 233.95L292.09 233.74L292.09 233.37L292.09 233L292.09 232.79L292.09 233.16L292.09 232.79L292.09 233L292.09 233.37Z" id="k3lmlrvVef"></path><path d="M338.84 270L422.33 354.23L375.58 401.4L292.09 317.17L208.61 401.4L161.86 354.23L245.34 270L161.86 185.77L208.61 138.6L292.09 222.83L375.58 138.6L422.33 185.77L338.84 270Z" id="ffjZwdCG9"></path><mask id="maskd2KSTPxFtj" x="161.86" y="138.6" width="260.47" height="262.79" maskUnits="userSpaceOnUse"><rect x="161.86" y="138.6" width="260.47" height="262.79" fill="white"></rect><use xlink:href="#ffjZwdCG9" opacity="0.91" fill="black"></use></mask></defs><g><g><g><use xlink:href="#k3lmlrvVef" opacity="1" fill="#773825" fill-opacity="1"></use></g><g><use xlink:href="#ffjZwdCG9" opacity="0.91" fill="white" fill-opacity="1"></use><g mask="url(#maskd2KSTPxFtj)"><use xlink:href="#ffjZwdCG9" opacity="0.91" fill-opacity="0"  stroke-width="0" stroke-opacity="1"></use></g></g></g></g></svg>